<?xml version="1.0" encoding="utf-8"?>
<!-- Generator: Adobe Illustrator 25.1.0, SVG Export Plug-In . SVG Version: 6.00 Build 0) -->
<svg version="1.1" id="Layer_1" xmlns="http://www.w3.org/2000/svg" xmlns:xlink="http://www.w3.org/1999/xlink" x="0px" y="0px" viewBox="0 0 47.78 34.84" style="enable-background:new 0 0 47.78 34.84;" xml:space="preserve">
	<g>
		<g>
			<path stroke="#212121" d="M47.31,0.2c-7.79-0.86-15.92,1.04-22.45,5.4c-2.94,1.96-5.31,4.46-6.66,7.75c-1.25,3.05-1.68,6.41-1.8,9.68
			c-0.13,3.77,0.18,7.55,0.64,11.29c0.31-0.08,0.62-0.17,0.93-0.25c-2.04-3.06-4.74-5.52-8.07-7.1c-2.94-1.39-6.11-2.1-9.26-2.82
			c-0.09,0.32-0.18,0.64-0.27,0.96c6.58,0.96,12.63,4.4,16.82,9.56c0.26,0.32,0.72,0.1,0.84-0.22c1.66-4.72,4.85-8.83,9.01-11.61
			c0.53-0.36,0.03-1.22-0.5-0.86c-4.38,2.94-7.71,7.23-9.46,12.21c0.28-0.07,0.56-0.15,0.84-0.22c-4.28-5.28-10.54-8.84-17.26-9.82
			c-0.62-0.09-0.91,0.82-0.27,0.96c3,0.69,6.06,1.34,8.87,2.65c3.24,1.51,5.89,3.84,7.87,6.81c0.25,0.37,1,0.28,0.93-0.25
			c-0.76-6.25-1.34-12.98,0.54-19.08c1.02-3.3,2.96-5.96,5.72-8.04c3.05-2.29,6.61-3.94,10.28-4.97c4.13-1.17,8.46-1.52,12.73-1.04
			C47.95,1.27,47.94,0.27,47.31,0.2L47.31,0.2z" />
		</g>
	</g>
</svg>
