<?xml version="1.0" encoding="utf-8"?>
<svg class="signature" version="1.1" xmlns="http://www.w3.org/2000/svg" xmlns:xlink="http://www.w3.org/1999/xlink" x="0px" y="0px" viewBox="0 0 390 115" style="enable-background:new 0 0 390 115;" xml:space="preserve">
	<path class="layer-1" d="M84.45,25.75c-16.2-0.07-28.05,14.16-37.03,25.91c-3.77,4.93-7.52,9.87-11.2,14.87c-0.73,0.99-1.47,1.99-2.21,2.98
		c-7.54,2.44-15.6,5.47-21.22,11.12c-2.9,2.92-4.72,6.64-4.73,10.79c0,0.48,0.35,1.1,0.81,1.28c5.23,1.93,10.37-2.19,14.03-5.48
		c4.94-4.45,9.14-9.73,13.12-15.03c4.29-1.37,8.65-2.56,12.95-3.79c3.61-1.03,7.52-2.23,10.76-3.65c1.75-0.77,0.84-3.63-0.93-2.85
		c-3.14,1.38-6.58,2.23-9.87,3.18c-3.23,0.93-6.47,1.84-9.69,2.8c2.44-3.25,4.88-6.51,7.3-9.77c4.8-6.47,9.67-12.96,15.51-18.54
		C68.2,33.68,75.85,28.9,84.6,28.99C86.69,29.01,86.54,25.75,84.45,25.75z M24.14,81.64c-2.29,2.47-4.74,4.87-7.59,6.69
		c-1.1,0.7-2.26,1.31-3.53,1.65c-0.59,0.16-1.25,0.22-1.85,0.17c0.71-6.63,7.59-10.8,13.09-13.43c2.05-0.98,4.15-1.85,6.27-2.65
		C28.5,76.68,26.39,79.22,24.14,81.64z" />
	<g class="layer-2">
		<path d="M93.33,37.54c-1.64-2.3-4.98-1.34-6.93-0.08c-2.88,1.85-5.35,4.37-7.65,6.89c-3.27,3.59-6.45,7.29-9.61,10.99
		c-3.16,2.06-6.35,4.08-9.57,6.04c-0.5,0.31-0.76,0.72-0.84,1.16c-0.24,0.54-0.09,1.25,0.43,1.57c0.43,0.54,1.1,0.87,1.84,0.73
		c-5.12,5.94-10.25,11.86-15.46,17.73c-1.22,1.38,0.8,3.19,2.1,1.91c5.24-5.15,11.29-9.48,17.83-12.81
		c1.59-0.81,3.22-1.55,4.87-2.23c1.29-0.53,2.98-1.51,4.43-1.37c0.66,0.06,0.48,0.08,0.21,0.68c-0.36,0.79-0.82,1.56-1.27,2.3
		c-0.83,1.35-1.74,2.64-2.65,3.94c-2.09,3-4.1,6.12-4.59,9.81c-0.14,1.02,0.78,2.24,1.92,1.75c5.21-2.23,10.18-5.1,14.39-8.92
		c1.29-1.17-0.6-3.42-1.98-2.33c-3.35,2.64-6.82,5.08-10.58,7.06c0.94-2.37,2.44-4.51,3.93-6.59c1.11-1.54,2.22-3.08,3.15-4.74
		c0.88-1.58,1.67-3.62,0.17-5.11c-2.61-2.59-7.45,0.18-10.07,1.37c-3.17,1.44-6.24,3.09-9.18,4.96c3.5-4.02,7.02-8.03,10.53-12.04
		c4.14-2.63,8.21-5.36,12.18-8.26c3.04-2.22,6.05-4.5,9.01-6.83C92.11,43.41,95.5,40.58,93.33,37.54z M90.79,39.85
		c-0.43,1.31-2.59,2.41-3.61,3.15c-2.73,1.98-5.48,3.92-8.27,5.82c-0.17,0.12-0.34,0.23-0.51,0.34c1.3-1.5,2.62-3,3.99-4.43
		c1.11-1.16,2.26-2.28,3.5-3.29c1.04-0.85,2.14-1.8,3.44-2.21C90.01,39.02,91.13,38.81,90.79,39.85z" />
	</g>
	<g class="layer-3">
		<path d="M96.57,75.94c-2.71,1.8-5.29,3.78-8.05,5.52c-1.38,0.87-2.78,1.7-4.21,2.47c-1.28,0.69-2.83,1.5-4.34,1.29
		c-0.01,0-0.02-0.01-0.03-0.01c0.12-0.18,0.14-0.85,0.19-1.04c0.17-0.67,0.4-1.33,0.7-1.96c0.62-1.31,1.4-2.52,2.3-3.65
		c2.01-2.51,4.42-4.67,6.46-7.15c0.55-0.67,0.65-1.61,0-2.27c-0.58-0.58-1.7-0.66-2.27,0c-3.79,4.34-8.97,8.06-10.26,14.02
		c-0.28,1.28-0.59,2.98,0.39,4.04c1.02,1.11,2.79,1.06,4.14,0.8c1.41-0.27,2.71-0.97,3.94-1.67c1.36-0.78,2.71-1.58,4.04-2.4
		c2.94-1.82,5.91-3.75,8.48-6.08C99.07,76.94,97.73,75.16,96.57,75.94z" />
		<path d="M96.99,59c-0.25-0.43-0.75-0.85-1.25-0.96c-0.54-0.12-1.14-0.1-1.61,0.21c-0.47,0.31-0.78,0.71-0.96,1.25
		c-0.02,0.05-0.04,0.11-0.06,0.16c-0.17,0.35-0.35,0.7-0.55,1.03c-0.2,0.33-0.37,0.66-0.58,0.98c-0.24,0.29-0.49,0.57-0.75,0.83
		c-0.47,0.46-0.61,1.3-0.24,1.87c0.36,0.57,1.07,0.91,1.74,0.71c1.04-0.32,1.92-0.9,2.74-1.6c0.15-0.13,0.29-0.26,0.42-0.42
		c0.22-0.28,0.45-0.56,0.63-0.87c0.28-0.5,0.51-1.03,0.7-1.57C97.38,60.12,97.25,59.43,96.99,59z" />
	</g>
	<g class="layer-4">
		<path d="M139.41,68.51c0.85-1.2-1.03-2.61-2.02-1.56c-5.27,5.62-10.97,10.41-17.77,14.09c-1.05,0.57-3.69,2.22-3.57-0.07
		c0.08-1.5,0.97-3,1.6-4.33c0.12-0.25,0.25-0.51,0.37-0.76c1.38-1.15,2.75-2.31,4.07-3.52c1.35-1.23,2.57-2.71,2.47-4.63
		c-0.05-0.97-1.06-1.63-1.95-1.12c-2.76,1.59-4.72,4.11-6.21,6.88c-0.06,0.11-0.11,0.23-0.17,0.34c-0.65,0.54-1.28,1.09-1.93,1.63
		c-2.84,2.33-5.81,4.78-9.28,6.13c-0.79,0.31-1.61,0.54-2.44,0.73c-0.38,0.09-0.54,0.24-0.61-0.07c-0.07-0.28,0.25-0.76,0.38-1
		c0.82-1.56,2.05-3.02,3.12-4.41c2.35-3.08,4.9-6.11,7.74-8.75c1.19-1.11-0.44-3.35-1.78-2.31c-5.22,4.03-10.53,7.86-16.27,11.11
		c-1.77,1.01-0.18,3.74,1.6,2.74c1.93-1.09,3.84-2.24,5.72-3.44c-0.74,1-1.47,2.01-2.16,3.05c-0.78,1.19-1.44,2.68-0.97,4.1
		c1.19,3.6,6.54,1.02,8.68-0.09c2.06-1.06,3.95-2.42,5.77-3.87c-0.25,0.88-0.37,1.79-0.22,2.69c0.24,1.37,1.2,2.44,2.58,2.74
		c1.72,0.37,3.39-0.63,4.83-1.41c3.2-1.72,6.21-3.76,9.07-5.99c0.66-0.51,1.32-1.05,1.97-1.59c-0.57,1.19-1.08,2.39-1.46,3.63
		c-0.52,1.68-0.17,3.52,1.47,4.41c1.47,0.8,3.34,0.44,4.83-0.08c1.52-0.52,0.92-2.85-0.67-2.43c-0.71,0.19-2.41,0.69-3.02,0.04
		c-0.74-0.79,0.9-3.38,1.27-4.16C135.88,74.22,137.49,71.22,139.41,68.51z" />
	</g>
	<g class="layer-5">
		<path d="M157.6,74.46c-1,0.31-2.11,0.25-3.08-0.13c1.36-2.53,2.33-5.26,2.88-8.08c0.17-0.85-0.37-1.63-1.27-1.66
		c-2.63-0.08-5.04,1.64-6.12,3.94c-0.32-0.1-0.69-0.09-1.06,0.1c-3.11,1.54-5.74,3.86-7.77,6.66c-0.98,1.37-1.77,2.85-2.4,4.41
		c-0.58,1.44-1.07,3.01-0.69,4.57c0.4,1.65,1.88,2.69,3.58,2.27c1.54-0.39,3.09-1.55,4.36-2.48c2.78-2.02,5.17-4.52,7.08-7.38
		c0,0,0,0,0,0c1.7,0.81,3.71,0.93,5.43,0.02C159.76,76.05,158.93,74.05,157.6,74.46z M154.38,67.63c-0.47,1.68-1.13,3.29-1.93,4.83
		c-0.07-0.15-0.15-0.28-0.2-0.44C151.68,70.24,152.8,68.42,154.38,67.63z M146.89,79.72c-1.02,0.93-2.11,1.77-3.26,2.52
		c-0.57,0.37-1.15,0.71-1.74,1.03c-0.29,0.16-0.58,0.3-0.88,0.43c-0.02,0.01-0.03,0.01-0.04,0.02c-0.48-0.72,0.28-2.36,0.52-2.98
		c0.48-1.24,1.13-2.42,1.87-3.51c1.57-2.33,3.67-4.22,6.09-5.61c0.03,0.33,0.07,0.67,0.16,1c0.25,0.91,0.71,1.73,1.33,2.43
		C149.78,76.75,148.42,78.32,146.89,79.72z" />
	</g>
	<g class="layer-6">
		<path d="M179.14,83.03c-1.44,0.35-4.35,1.2-5.25-0.65c-0.46-0.93,0.29-2,0.81-2.77c1.6-2.37,3.67-4.43,3.2-7.57
		c-0.14-0.96-1.39-1.34-2.11-0.89c-3.87,2.41-7.57,5.05-11.21,7.77c2.73-4.15,5.42-8.32,8.3-12.35c1.05-1.47-1.31-3.38-2.46-1.97
		c-2.21,2.72-5.04,4.77-8.34,5.75c-2.11,0.62-1.21,4.05,0.91,3.41c0.62-0.19,1.23-0.41,1.82-0.66c-2.65,3.9-5.33,7.79-7.84,11.79
		c-0.96,1.53,1.1,2.9,2.3,1.84c4.5-3.96,9.42-7.46,14.43-10.73c-0.1,0.13-0.2,0.25-0.29,0.36c-1,1.28-2.12,2.6-2.54,4.23
		c-0.49,1.92,0.26,3.88,1.81,5.01c2.19,1.6,4.85,1.05,7.22,0.26C181.64,85.29,180.93,82.6,179.14,83.03z" />
	</g>
	<g class="layer-7">
		<path d="M324.02,11.93c-0.64-3.44-3.98-5.75-7.27-6.25c-4.25-0.65-8.31,1.4-11.87,3.46c-3.3,1.91-6.48,4.03-9.54,6.31
		c-6.1,4.54-11.72,9.67-17,15.14C267.6,41.73,258.15,54,248.42,66.01c-0.23,0.28-0.46,0.57-0.7,0.85
		c-3.78,0.35-7.56,0.68-11.31,1.26c-8.03,1.24-16.16,4.35-20.32,11.82c-1.83,3.28-2.63,7.2-1.64,10.88c1.03,3.86,4.23,6.14,8.2,5.38
		c3.89-0.75,6.97-3.7,9.71-6.36c2.82-2.73,5.53-5.57,8.15-8.49c3.6-3.99,7.03-8.11,10.39-12.29c2.35-0.23,4.69-0.47,7.04-0.7
		c2.48-0.25,4.95-0.52,7.42-0.8c1.46-0.17,1.51-2.45,0-2.33c-4.11,0.34-8.21,0.73-12.31,1.13c5.69-7.16,11.22-14.45,17-21.55
		c9.75-11.96,20.5-23.34,33.6-31.67c3.46-2.2,7.44-4.96,11.7-4.91c1.71,0.02,3.47,0.63,4.73,1.81c1.54,1.44,1.73,3.35,1.17,5.31
		c-1.18,4.13-3.59,8.17-5.81,11.81c-2.28,3.73-4.85,7.28-7.71,10.59c-1.39,1.62-2.85,3.17-4.36,4.68c-1.12,1.12,0.61,2.85,1.74,1.74
		c6.03-6,11.12-12.88,15.09-20.4c1-1.89,1.94-3.82,2.78-5.79C323.8,16.07,324.41,14.03,324.02,11.93z M233.14,83.8
		c-2.56,2.73-5.17,5.88-8.35,7.89c-1.38,0.87-3.15,1.78-4.84,1.41c-1.91-0.42-2.66-2.43-2.96-4.16
		c-1.42-8.26,6.38-14.58,13.36-16.83c4.17-1.34,8.53-1.85,12.87-2.29c0.75-0.08,1.51-0.15,2.26-0.23
		C241.51,74.44,237.44,79.22,233.14,83.8z" />
	</g>
	<g class="layer-8">
		<path d="M291.09,48.94c-1.22-2.22-3.89-2.03-5.89-1.1c-2.55,1.18-4.63,3.47-6.7,5.31c-4.96,4.41-9.77,9-14.41,13.74
		c-5.19,5.3-10.11,10.85-14.81,16.59c-1.04,1.27,0.53,2.85,1.8,1.8c5.51-4.57,11.61-8.6,18.01-11.89c-0.98,1.51-1.96,3.02-2.93,4.53
		c-1.19,1.86-3.1,4.97-0.38,6.54c2.1,1.21,5.11-0.44,7.06-1.29c2.64-1.16,5.09-2.62,7.33-4.43c1.09-0.88-0.33-2.72-1.5-1.94
		c-1.81,1.2-3.68,2.33-5.64,3.28c-0.94,0.45-1.9,0.86-2.88,1.22c-0.63,0.23-1.92,0.92-2.6,0.77c-0.45-0.1-0.41-0.11-0.23-0.61
		c0.16-0.46,0.45-0.87,0.71-1.29c0.6-0.98,1.22-1.95,1.82-2.93c1.3-2.09,2.57-4.2,3.83-6.32c0.67-1.12-0.63-2.22-1.7-1.7
		c-4.62,2.28-9.06,4.8-13.34,7.57c2.66-2.9,5.36-5.75,8.11-8.56c0.31,0.43,0.83,0.67,1.51,0.43c5.2-1.9,10.42-3.93,14.97-7.14
		c2.16-1.53,4.14-3.28,5.78-5.36C290.56,54.21,292.47,51.45,291.09,48.94z M287.34,53.92c-1.47,1.88-3.29,3.5-5.25,4.85
		c-3.61,2.51-7.68,4.26-11.78,5.87c1.49-1.47,2.98-2.95,4.49-4.39c2.07-1.97,4.16-3.91,6.28-5.83c1.77-1.6,3.67-3.86,6.04-4.55
		c0.87-0.25,1.81-0.21,1.84,0.92C288.99,51.91,287.99,53.1,287.34,53.92z" />
	</g>
	<g class="layer-9">
		<path d="M309.78,71.9c-4,3.18-8.18,6.19-12.51,8.9c-0.38,0.24-0.81,0.55-1.26,0.63c-0.48,0.09-0.44,0.13-0.27-0.39
		c0.34-1.02,0.97-1.98,1.54-2.89c1.25-2.01,2.76-3.82,4.49-5.44c1.3-1.23-0.59-3-1.92-1.92c-4.84,3.88-9.86,7.92-15.81,9.81
		c1.54-3.05,3.52-5.94,5.89-8.35c1.09-1.11-0.32-3.07-1.7-2.2c-2.72,1.73-5.04,3.9-6.97,6.48c-0.59,0.79,0.03,1.74,0.82,2.03
		c-0.6,1.09-1.15,2.21-1.65,3.38c-0.48,1.12,0.3,2.23,1.54,2.01c4.25-0.77,8.06-2.64,11.61-4.97c-0.47,0.9-0.84,1.86-0.74,2.87
		c0.14,1.37,1.22,2.41,2.6,2.5c1.36,0.08,2.57-0.59,3.69-1.3c1.46-0.92,2.89-1.87,4.31-2.85c1.07-0.74,2.11-1.52,3.16-2.3
		c-0.03,0.17-0.06,0.34-0.08,0.52c-0.18,2.04,0.58,4.02,2.3,5.17c1.18,0.79,2.55-1,1.52-1.97c-2.51-2.34-0.22-5.68,1.42-7.75
		C312.86,72.45,311.19,70.78,309.78,71.9z" />
	</g>
	<g class="layer-10">
		<path d="M338.19,78.52c0.92-2.3,1.84-4.59,2.75-6.89c0.46-1.14-1.2-1.93-1.97-1.15c-2.2,2.2-4.48,4.31-6.73,6.45
		c-2.1,1.99-4.12,4.16-6.62,5.66c-0.18,0.11-1.59,0.94-1.62,0.91c-0.2-0.2,0.23-1.21,0.31-1.42c0.52-1.44,1.13-2.86,1.7-4.29
		c1.16-2.94,2.32-5.88,3.51-8.8c0.53-1.29-1.53-2.5-2.39-1.39c-4.46,5.73-10.47,10.25-17.06,13.24c-2.16,0.98-0.29,4.17,1.86,3.19
		c4.46-2.04,8.4-4.8,11.83-8.14c-0.42,1.06-0.84,2.12-1.26,3.19c-0.56,1.42-1.38,2.93-1.27,4.51c0.11,1.49,1.19,2.6,2.72,2.54
		c1.59-0.05,3.2-1.29,4.42-2.21c1.35-1.02,2.59-2.18,3.79-3.37c1.41-1.38,2.8-2.79,4.19-4.19c-0.01,0.01-0.01,0.03-0.02,0.04
		c-0.42,0.98-0.85,1.97-1.27,2.95c-0.34,0.79-0.82,1.63-0.98,2.48c-0.25,1.4,0.54,2.68,1.9,3.11c1.66,0.52,3.14-0.41,4.31-1.51
		c0.99-0.93-0.32-2.69-1.47-1.91c-0.43,0.29-0.98,0.79-1.5,0.89c-0.74,0.15-0.62-0.1-0.43-0.68
		C337.28,80.65,337.77,79.59,338.19,78.52z" />
	</g>
	<g class="layer-11">
		<path d="M355.55,76.37c-1.07,1.02-2.16,2.01-3.36,2.87c-1.07,0.77-2.34,1.8-3.65,2.1c-0.42,0.1-0.98,0.13-1.31-0.21
		c-0.39-0.4-0.29-1.15-0.25-1.64c0.03-0.38,0.09-0.75,0.15-1.13c1.13-1.01,2.23-2.05,3.28-3.15c1.3-1.36,2.72-2.79,3.69-4.42
		c0.43-0.72,0.85-1.6,0.8-2.46c-0.05-1.06-0.84-1.75-1.84-1.9c-1.86-0.29-3.33,1.18-4.36,2.53c-1.14,1.49-2.05,3.13-2.74,4.86
		c-0.38,0.95-0.68,1.93-0.91,2.93c-1.78,1.51-3.61,2.97-5.42,4.44c-0.56,0.45-0.47,1.41,0,1.88c0.55,0.55,1.31,0.45,1.88,0
		c1.05-0.84,2.09-1.69,3.12-2.55c0.13,1.28,0.71,2.43,2.04,2.95c1.95,0.76,3.86-0.38,5.45-1.44c1.79-1.19,3.46-2.61,4.87-4.24
		C357.84,76.82,356.51,75.45,355.55,76.37z M349.72,71.54c0.57-0.92,1.41-2.52,2.56-2.79c0.02-0.01,0.08-0.01,0.14-0.01
		c-0.11,0.22-0.22,0.61-0.29,0.74c-0.36,0.63-0.81,1.2-1.29,1.75c-0.68,0.78-1.41,1.51-2.15,2.23
		C348.99,72.81,349.34,72.17,349.72,71.54z" />
	</g>
	<g class="layer-12">
		<path d="M381.32,43.97c-1.69-0.12-2.68,1.24-3.58,2.46c-1.16,1.57-2.33,3.13-3.46,4.72c-2.26,3.18-4.42,6.44-6.36,9.82
		c-1.15,2-2.22,4.04-3.2,6.13c-2.97,3.09-5.99,6.13-9.02,9.16c-1.11,1.11,0.6,2.82,1.72,1.72c1.58-1.54,3.15-3.08,4.71-4.63
		c-0.4,1.13-0.77,2.26-1.1,3.41c-0.47,1.63-1.14,3.49-1.1,5.2c0.04,1.71,1.35,2.9,3.05,2.77c2.04-0.16,3-1.91,4.36-3.16
		c0.97-0.9-0.43-2.2-1.42-1.42c-0.64,0.5-3.95,4.14-3.89,1.47c0.04-1.73,0.84-3.68,1.36-5.31c0.75-2.35,1.64-4.65,2.64-6.91
		c2.25-2.32,4.46-4.68,6.57-7.14c2.25-2.61,4.47-5.3,6.44-8.12c1.88-2.7,3.39-5.69,3.36-9.05
		C382.42,44.44,381.92,44.01,381.32,43.97z M376.52,53.62c-1.94,2.6-4.06,5.07-6.23,7.49c1.17-2,2.4-3.96,3.68-5.89
		c1.09-1.62,2.22-3.22,3.37-4.79c0.6-0.81,1.2-1.63,1.81-2.43c0.24-0.31,0.51-0.73,0.83-1.1C379.46,49.38,378.04,51.59,376.52,53.62
		z" />
	</g>
</svg>
